{"asset":{"version":"2.0","generator":"Blockbench 4.9.4 glTF exporter"},"scenes":[{"nodes":[25],"name":"blockbench_export"}],"scene":0,"nodes":[{"name":"Torso","mesh":0},{"name":"cube","mesh":1},{"rotation":[-1.3253104020899328e-17,-0.21643961393810288,-0.9762960071199334,5.97808890069884e-17],"translation":[0,0,0.0625],"name":"pyramid","mesh":2},{"translation":[0,0,0.125],"name":"beard","children":[2]},{"rotation":[0.7933533402912352,0,0,0.6087614290087207],"name":"pyramid","mesh":3},{"translation":[0,0.3125,-0.125],"name":"hair","children":[4]},{"translation":[0,0.3125,0],"name":"head","children":[1,3,5]},{"name":"cube","mesh":4},{"name":"cube","mesh":5},{"translation":[-0.25,0,0],"name":"leftHand","children":[8]},{"translation":[-0.1875,0.1875,0],"name":"leftArm","children":[7,9]},{"name":"cube","mesh":6},{"name":"cube","mesh":7},{"translation":[0.25,0,0],"name":"rightHand","children":[12]},{"translation":[0.1875,0.1875,0],"name":"rightArm","children":[11,13]},{"name":"cube","mesh":8},{"name":"cube","mesh":9},{"translation":[0,-0.1875,0],"name":"leftFoot","children":[16]},{"translation":[-0.125,-0.1875,0],"name":"leftLeg","children":[15,17]},{"name":"cube","mesh":10},{"name":"cube","mesh":11},{"translation":[0,-0.1875,0],"name":"rightFoot","children":[20]},{"translation":[0.125,-0.1875,0],"name":"rightLeg","children":[19,21]},{"translation":[0,0.5625,0],"name":"torso","children":[0,6,10,14,18,22]},{"name":"master","children":[23]},{"children":[24]}],"bufferViews":[{"buffer":0,"byteOffset":0,"byteLength":288,"target":34962,"byteStride":12},{"buffer":0,"byteOffset":288,"byteLength":288,"target":34962,"byteStride":12},{"buffer":0,"byteOffset":576,"byteLength":192,"target":34962,"byteStride":8},{"buffer":0,"byteOffset":768,"byteLength":72,"target":34963},{"buffer":0,"byteOffset":840,"byteLength":288,"target":34962,"byteStride":12},{"buffer":0,"byteOffset":1128,"byteLength":288,"target":34962,"byteStride":12},{"buffer":0,"byteOffset":1416,"byteLength":192,"target":34962,"byteStride":8},{"buffer":0,"byteOffset":1608,"byteLength":72,"target":34963},{"buffer":0,"byteOffset":1680,"byteLength":192,"target":34962,"byteStride":12},{"buffer":0,"byteOffset":1872,"byteLength":192,"target":34962,"byteStride":12},{"buffer":0,"byteOffset":2064,"byteLength":128,"target":34962,"byteStride":8},{"buffer":0,"byteOffset":2192,"byteLength":36,"target":34963},{"buffer":0,"byteOffset":2228,"byteLength":192,"target":34962,"byteStride":12},{"buffer":0,"byteOffset":2420,"byteLength":192,"target":34962,"byteStride":12},{"buffer":0,"byteOffset":2612,"byteLength":128,"target":34962,"byteStride":8},{"buffer":0,"byteOffset":2740,"byteLength":36,"target":34963},{"buffer":0,"byteOffset":2776,"byteLength":288,"target":34962,"byteStride":12},{"buffer":0,"byteOffset":3064,"byteLength":288,"target":34962,"byteStride":12},{"buffer":0,"byteOffset":3352,"byteLength":192,"target":34962,"byteStride":8},{"buffer":0,"byteOffset":3544,"byteLength":72,"target":34963},{"buffer":0,"byteOffset":3616,"byteLength":288,"target":34962,"byteStride":12},{"buffer":0,"byteOffset":3904,"byteLength":288,"target":34962,"byteStride":12},{"buffer":0,"byteOffset":4192,"byteLength":192,"target":34962,"byteStride":8},{"buffer":0,"byteOffset":4384,"byteLength":72,"target":34963},{"buffer":0,"byteOffset":4456,"byteLength":288,"target":34962,"byteStride":12},{"buffer":0,"byteOffset":4744,"byteLength":288,"target":34962,"byteStride":12},{"buffer":0,"byteOffset":5032,"byteLength":192,"target":34962,"byteStride":8},{"buffer":0,"byteOffset":5224,"byteLength":72,"target":34963},{"buffer":0,"byteOffset":5296,"byteLength":288,"target":34962,"byteStride":12},{"buffer":0,"byteOffset":5584,"byteLength":288,"target":34962,"byteStride":12},{"buffer":0,"byteOffset":5872,"byteLength":192,"target":34962,"byteStride":8},{"buffer":0,"byteOffset":6064,"byteLength":72,"target":34963},{"buffer":0,"byteOffset":6136,"byteLength":288,"target":34962,"byteStride":12},{"buffer":0,"byteOffset":6424,"byteLength":288,"target":34962,"byteStride":12},{"buffer":0,"byteOffset":6712,"byteLength":192,"target":34962,"byteStride":8},{"buffer":0,"byteOffset":6904,"byteLength":72,"target":34963},{"buffer":0,"byteOffset":6976,"byteLength":288,"target":34962,"byteStride":12},{"buffer":0,"byteOffset":7264,"byteLength":288,"target":34962,"byteStride":12},{"buffer":0,"byteOffset":7552,"byteLength":192,"target":34962,"byteStride":8},{"buffer":0,"byteOffset":7744,"byteLength":72,"target":34963},{"buffer":0,"byteOffset":7816,"byteLength":288,"target":34962,"byteStride":12},{"buffer":0,"byteOffset":8104,"byteLength":288,"target":34962,"byteStride":12},{"buffer":0,"byteOffset":8392,"byteLength":192,"target":34962,"byteStride":8},{"buffer":0,"byteOffset":8584,"byteLength":72,"target":34963},{"buffer":0,"byteOffset":8656,"byteLength":288,"target":34962,"byteStride":12},{"buffer":0,"byteOffset":8944,"byteLength":288,"target":34962,"byteStride":12},{"buffer":0,"byteOffset":9232,"byteLength":192,"target":34962,"byteStride":8},{"buffer":0,"byteOffset":9424,"byteLength":72,"target":34963},{"buffer":0,"byteOffset":9496,"byteLength":12},{"buffer":0,"byteOffset":9508,"byteLength":48},{"buffer":0,"byteOffset":9556,"byteLength":12},{"buffer":0,"byteOffset":9568,"byteLength":48},{"buffer":0,"byteOffset":9616,"byteLength":12},{"buffer":0,"byteOffset":9628,"byteLength":48},{"buffer":0,"byteOffset":9676,"byteLength":8},{"buffer":0,"byteOffset":9684,"byteLength":24},{"buffer":0,"byteOffset":9708,"byteLength":12},{"buffer":0,"byteOffset":9720,"byteLength":48},{"buffer":0,"byteOffset":9768,"byteLength":8},{"buffer":0,"byteOffset":9776,"byteLength":24},{"buffer":0,"byteOffset":9800,"byteLength":8},{"buffer":0,"byteOffset":9808,"byteLength":32},{"buffer":0,"byteOffset":9840,"byteLength":8},{"buffer":0,"byteOffset":9848,"byteLength":32},{"buffer":0,"byteOffset":9880,"byteLength":12},{"buffer":0,"byteOffset":9892,"byteLength":48},{"buffer":0,"byteOffset":9940,"byteLength":12},{"buffer":0,"byteOffset":9952,"byteLength":48},{"buffer":0,"byteOffset":10000,"byteLength":8},{"buffer":0,"byteOffset":10008,"byteLength":32},{"buffer":0,"byteOffset":10040,"byteLength":8},{"buffer":0,"byteOffset":10048,"byteLength":32}],"buffers":[{"byteLength":10080,"uri":"data:application/octet-stream;base64,"}],"accessors":[{"bufferView":0,"componentType":5126,"count":24,"max":[0.1875,0.25,0.09375],"min":[-0.1875,-0.1875,-0.09375],"type":"VEC3"},{"bufferView":1,"componentType":5126,"count":24,"max":[1,1,1],"min":[-1,-1,-1],"type":"VEC3"},{"bufferView":2,"componentType":5126,"count":24,"max":[0.75,0.875],"min":[0,0],"type":"VEC2"},{"bufferView":3,"componentType":5123,"count":36,"max":[23],"min":[0],"type":"SCALAR"},{"bufferView":4,"componentType":5126,"count":24,"max":[0.21875,0.3125,0.21875],"min":[-0.21875,-0.0625,-0.15625],"type":"VEC3"},{"bufferView":5,"componentType":5126,"count":24,"max":[1,1,1],"min":[-1,-1,-1],"type":"VEC3"},{"bufferView":6,"componentType":5126,"count":24,"max":[0.4375,0.5625],"min":[0,0],"type":"VEC2"},{"bufferView":7,"componentType":5123,"count":36,"max":[23],"min":[0],"type":"SCALAR"},{"bufferView":8,"componentType":5126,"count":16,"max":[0.21875,0.2860187292098999,0.05142179876565933],"min":[-0.21875,-0.0264812670648098,-0.13607819378376007],"type":"VEC3"},{"bufferView":9,"componentType":5126,"count":16,"max":[0.8192319273948669,0.5734623670578003,0.9578262567520142],"min":[-0.8192319273948669,-1,-0.9578262567520142],"type":"VEC3"},{"bufferView":10,"componentType":5126,"count":16,"max":[0.9375,0.9320815801620483],"min":[0,0],"type":"VEC2"},{"bufferView":11,"componentType":5123,"count":18,"max":[15],"min":[0],"type":"SCALAR"},{"bufferView":12,"componentType":5126,"count":16,"max":[0.0625,0.02110501192510128,0.06709198653697968],"min":[-0.0625,-0.16639499366283417,-0.057908009737730026],"type":"VEC3"},{"bufferView":13,"componentType":5126,"count":16,"max":[0.9486833214759827,0.3162277638912201,0.9486833214759827],"min":[-0.9486833214759827,-1,-0.9486833214759827],"type":"VEC3"},{"bufferView":14,"componentType":5126,"count":16,"max":[0.5,0.5197904109954834],"min":[0.0029085499700158834,0],"type":"VEC2"},{"bufferView":15,"componentType":5123,"count":18,"max":[15],"min":[0],"type":"SCALAR"},{"bufferView":16,"componentType":5126,"count":24,"max":[0.012500000186264515,0.07500000298023224,0.07500000298023224],"min":[-0.26249998807907104,-0.07500000298023224,-0.07500000298023224],"type":"VEC3"},{"bufferView":17,"componentType":5126,"count":24,"max":[1,1,1],"min":[-1,-1,-1],"type":"VEC3"},{"bufferView":18,"componentType":5126,"count":24,"max":[0.25,0.125],"min":[0,0],"type":"VEC2"},{"bufferView":19,"componentType":5123,"count":36,"max":[23],"min":[0],"type":"SCALAR"},{"bufferView":20,"componentType":5126,"count":24,"max":[-0.012500000186264515,0.07500000298023224,0.07500000298023224],"min":[-0.2874999940395355,-0.07500000298023224,-0.07500000298023224],"type":"VEC3"},{"bufferView":21,"componentType":5126,"count":24,"max":[1,1,1],"min":[-1,-1,-1],"type":"VEC3"},{"bufferView":22,"componentType":5126,"count":24,"max":[0.5,0.375],"min":[0,0],"type":"VEC2"},{"bufferView":23,"componentType":5123,"count":36,"max":[23],"min":[0],"type":"SCALAR"},{"bufferView":24,"componentType":5126,"count":24,"max":[0.26249998807907104,0.07500000298023224,0.07500000298023224],"min":[-0.012500000186264515,-0.07500000298023224,-0.07500000298023224],"type":"VEC3"},{"bufferView":25,"componentType":5126,"count":24,"max":[1,1,1],"min":[-1,-1,-1],"type":"VEC3"},{"bufferView":26,"componentType":5126,"count":24,"max":[0.5,0.375],"min":[0,0],"type":"VEC2"},{"bufferView":27,"componentType":5123,"count":36,"max":[23],"min":[0],"type":"SCALAR"},{"bufferView":28,"componentType":5126,"count":24,"max":[0.2874999940395355,0.07500000298023224,0.07500000298023224],"min":[0.012500000186264515,-0.07500000298023224,-0.07500000298023224],"type":"VEC3"},{"bufferView":29,"componentType":5126,"count":24,"max":[1,1,1],"min":[-1,-1,-1],"type":"VEC3"},{"bufferView":30,"componentType":5126,"count":24,"max":[0.25,0.125],"min":[0,0],"type":"VEC2"},{"bufferView":31,"componentType":5123,"count":36,"max":[23],"min":[0],"type":"SCALAR"},{"bufferView":32,"componentType":5126,"count":24,"max":[0.0625,0,0.0625],"min":[-0.0625,-0.1875,-0.0625],"type":"VEC3"},{"bufferView":33,"componentType":5126,"count":24,"max":[1,1,1],"min":[-1,-1,-1],"type":"VEC3"},{"bufferView":34,"componentType":5126,"count":24,"max":[0.375,0.375],"min":[0,0],"type":"VEC2"},{"bufferView":35,"componentType":5123,"count":36,"max":[23],"min":[0],"type":"SCALAR"},{"bufferView":36,"componentType":5126,"count":24,"max":[0.0625,0,0.0625],"min":[-0.0625,-0.1875,-0.0625],"type":"VEC3"},{"bufferView":37,"componentType":5126,"count":24,"max":[1,1,1],"min":[-1,-1,-1],"type":"VEC3"},{"bufferView":38,"componentType":5126,"count":24,"max":[0.375,0.375],"min":[0,0],"type":"VEC2"},{"bufferView":39,"componentType":5123,"count":36,"max":[23],"min":[0],"type":"SCALAR"},{"bufferView":40,"componentType":5126,"count":24,"max":[0.0625,0,0.0625],"min":[-0.0625,-0.1875,-0.0625],"type":"VEC3"},{"bufferView":41,"componentType":5126,"count":24,"max":[1,1,1],"min":[-1,-1,-1],"type":"VEC3"},{"bufferView":42,"componentType":5126,"count":24,"max":[0.125,0.1875],"min":[0,0],"type":"VEC2"},{"bufferView":43,"componentType":5123,"count":36,"max":[23],"min":[0],"type":"SCALAR"},{"bufferView":44,"componentType":5126,"count":24,"max":[0.0625,0,0.0625],"min":[-0.0625,-0.1875,-0.0625],"type":"VEC3"},{"bufferView":45,"componentType":5126,"count":24,"max":[1,1,1],"min":[-1,-1,-1],"type":"VEC3"},{"bufferView":46,"componentType":5126,"count":24,"max":[0.375,0.375],"min":[0,0],"type":"VEC2"},{"bufferView":47,"componentType":5123,"count":36,"max":[23],"min":[0],"type":"SCALAR"},{"bufferView":48,"componentType":5126,"count":3,"max":[4],"min":[0],"type":"SCALAR"},{"bufferView":49,"componentType":5126,"count":3,"max":[0,-1,0,6.123234262925839e-17],"min":[0,-1,0,6.123234262925839e-17],"type":"VEC4"},{"bufferView":50,"componentType":5126,"count":3,"max":[4],"min":[0],"type":"SCALAR"},{"bufferView":51,"componentType":5126,"count":3,"max":[0.021809693425893784,-0.0009515519486740232,-0.021685224026441574,0.9995241165161133],"min":[-0.04360900819301605,-0.00237491843290627,-0.021794121712446213,0.9988104701042175],"type":"VEC4"},{"bufferView":52,"componentType":5126,"count":3,"max":[4],"min":[0],"type":"SCALAR"},{"bufferView":53,"componentType":5126,"count":3,"max":[0.018301693722605705,0.011799617670476437,0.517662525177002,0.8553077578544617],"min":[-0.02688521146774292,-0.06279026716947556,0.5172877311706543,0.853081464767456],"type":"VEC4"},{"bufferView":54,"componentType":5126,"count":2,"max":[4],"min":[0],"type":"SCALAR"},{"bufferView":55,"componentType":5126,"count":2,"max":[-0.23125000298023224,0.24375000596046448,0],"min":[-0.23125000298023224,0.24375000596046448,0],"type":"VEC3"},{"bufferView":56,"componentType":5126,"count":3,"max":[4],"min":[0],"type":"SCALAR"},{"bufferView":57,"componentType":5126,"count":3,"max":[0,0,-0.6222031712532043,0.7798844575881958],"min":[-0.06814233213663101,-0.08490358293056488,-0.6259234547615051,0.7752491235733032],"type":"VEC4"},{"bufferView":58,"componentType":5126,"count":2,"max":[4],"min":[0],"type":"SCALAR"},{"bufferView":59,"componentType":5126,"count":2,"max":[0.23125000298023224,0.25,0],"min":[0.23125000298023224,0.25,0],"type":"VEC3"},{"bufferView":60,"componentType":5126,"count":2,"max":[4],"min":[0],"type":"SCALAR"},{"bufferView":61,"componentType":5126,"count":2,"max":[-0.06540312618017197,0,0,0.9978589415550232],"min":[-0.06540312618017197,0,0,0.9978589415550232],"type":"VEC4"},{"bufferView":62,"componentType":5126,"count":2,"max":[4],"min":[0],"type":"SCALAR"},{"bufferView":63,"componentType":5126,"count":2,"max":[-0.08715574443340302,0,0,0.9961947202682495],"min":[-0.08715574443340302,0,0,0.9961947202682495],"type":"VEC4"},{"bufferView":64,"componentType":5126,"count":3,"max":[4],"min":[0],"type":"SCALAR"},{"bufferView":65,"componentType":5126,"count":3,"max":[0.04889845848083496,0.21392057836055756,0.1485174596309662,0.9824870228767395],"min":[0.032925527542829514,0.10759983211755753,0.1440502107143402,0.9649333953857422],"type":"VEC4"},{"bufferView":66,"componentType":5126,"count":3,"max":[4],"min":[0],"type":"SCALAR"},{"bufferView":67,"componentType":5126,"count":3,"max":[0,-0.04361938685178757,0,0.9990482330322266],"min":[0,-0.237685889005661,0,0.9713420867919922],"type":"VEC4"},{"bufferView":68,"componentType":5126,"count":2,"max":[4],"min":[0],"type":"SCALAR"},{"bufferView":69,"componentType":5126,"count":2,"max":[0.08715574443340302,0,0,0.9961947202682495],"min":[0.08715574443340302,0,0,0.9961947202682495],"type":"VEC4"},{"bufferView":70,"componentType":5126,"count":2,"max":[4],"min":[0],"type":"SCALAR"},{"bufferView":71,"componentType":5126,"count":2,"max":[0.15212339162826538,0,0,0.9883615374565125],"min":[0.15212339162826538,0,0,0.9883615374565125],"type":"VEC4"}],"materials":[{"pbrMetallicRoughness":{"metallicFactor":0,"roughnessFactor":1,"baseColorTexture":{"index":0}},"alphaMode":"MASK","alphaCutoff":0.05,"doubleSided":true},{"pbrMetallicRoughness":{"metallicFactor":0,"roughnessFactor":1,"baseColorTexture":{"index":1}},"alphaMode":"MASK","alphaCutoff":0.05,"doubleSided":true},{"pbrMetallicRoughness":{"metallicFactor":0,"roughnessFactor":1,"baseColorTexture":{"index":2}},"alphaMode":"MASK","alphaCutoff":0.05,"doubleSided":true},{"pbrMetallicRoughness":{"metallicFactor":0,"roughnessFactor":1,"baseColorTexture":{"index":3}},"alphaMode":"MASK","alphaCutoff":0.05,"doubleSided":true},{"pbrMetallicRoughness":{"metallicFactor":0,"roughnessFactor":1,"baseColorTexture":{"index":4}},"alphaMode":"MASK","alphaCutoff":0.05,"doubleSided":true},{"pbrMetallicRoughness":{"metallicFactor":0,"roughnessFactor":1,"baseColorTexture":{"index":5}},"alphaMode":"MASK","alphaCutoff":0.05,"doubleSided":true},{"pbrMetallicRoughness":{"metallicFactor":0,"roughnessFactor":1,"baseColorTexture":{"index":6}},"alphaMode":"MASK","alphaCutoff":0.05,"doubleSided":true},{"pbrMetallicRoughness":{"metallicFactor":0,"roughnessFactor":1,"baseColorTexture":{"index":7}},"alphaMode":"MASK","alphaCutoff":0.05,"doubleSided":true},{"pbrMetallicRoughness":{"metallicFactor":0,"roughnessFactor":1,"baseColorTexture":{"index":8}},"alphaMode":"MASK","alphaCutoff":0.05,"doubleSided":true}],"textures":[{"sampler":0,"source":0},{"sampler":1,"source":1},{"sampler":2,"source":2},{"sampler":3,"source":3},{"sampler":4,"source":4},{"sampler":5,"source":5},{"sampler":6,"source":6},{"sampler":7,"source":7},{"sampler":8,"source":8}],"samplers":[{"magFilter":9728,"minFilter":9728,"wrapS":33071,"wrapT":33071},{"magFilter":9728,"minFilter":9728,"wrapS":33071,"wrapT":33071},{"magFilter":9728,"minFilter":9728,"wrapS":33071,"wrapT":33071},{"magFilter":9728,"minFilter":9728,"wrapS":33071,"wrapT":33071},{"magFilter":9728,"minFilter":9728,"wrapS":33071,"wrapT":33071},{"magFilter":9728,"minFilter":9728,"wrapS":33071,"wrapT":33071},{"magFilter":9728,"minFilter":9728,"wrapS":33071,"wrapT":33071},{"magFilter":9728,"minFilter":9728,"wrapS":33071,"wrapT":33071},{"magFilter":9728,"minFilter":9728,"wrapS":33071,"wrapT":33071}],"images":[{"mimeType":"image/png","uri":"data:image/png;base64,"},{"mimeType":"image/png","uri":"data:image/png;base64,"},{"mimeType":"image/png","uri":"data:image/png;base64,"},{"mimeType":"image/png","uri":"data:image/png;base64,"},{"mimeType":"image/png","uri":"data:image/png;base64,"},{"mimeType":"image/png","uri":"data:image/png;base64,"},{"mimeType":"image/png","uri":"data:image/png;base64,"},{"mimeType":"image/png","uri":"data:image/png;base64,"},{"mimeType":"image/png","uri":"data:image/png;base64,"}],"meshes":[{"primitives":[{"mode":4,"attributes":{"POSITION":0,"NORMAL":1,"TEXCOORD_0":2},"indices":3,"material":0}]},{"primitives":[{"mode":4,"attributes":{"POSITION":4,"NORMAL":5,"TEXCOORD_0":6},"indices":7,"material":1}]},{"primitives":[{"mode":4,"attributes":{"POSITION":8,"NORMAL":9,"TEXCOORD_0":10},"indices":11,"material":2}]},{"primitives":[{"mode":4,"attributes":{"POSITION":12,"NORMAL":13,"TEXCOORD_0":14},"indices":15,"material":3}]},{"primitives":[{"mode":4,"attributes":{"POSITION":16,"NORMAL":17,"TEXCOORD_0":18},"indices":19,"material":4}]},{"primitives":[{"mode":4,"attributes":{"POSITION":20,"NORMAL":21,"TEXCOORD_0":22},"indices":23,"material":5}]},{"primitives":[{"mode":4,"attributes":{"POSITION":24,"NORMAL":25,"TEXCOORD_0":26},"indices":27,"material":4}]},{"primitives":[{"mode":4,"attributes":{"POSITION":28,"NORMAL":29,"TEXCOORD_0":30},"indices":31,"material":5}]},{"primitives":[{"mode":4,"attributes":{"POSITION":32,"NORMAL":33,"TEXCOORD_0":34},"indices":35,"material":6}]},{"primitives":[{"mode":4,"attributes":{"POSITION":36,"NORMAL":37,"TEXCOORD_0":38},"indices":39,"material":7}]},{"primitives":[{"mode":4,"attributes":{"POSITION":40,"NORMAL":41,"TEXCOORD_0":42},"indices":43,"material":6}]},{"primitives":[{"mode":4,"attributes":{"POSITION":44,"NORMAL":45,"TEXCOORD_0":46},"indices":47,"material":8}]}],"animations":[{"name":"idle","samplers":[{"input":48,"output":49,"interpolation":"LINEAR"},{"input":50,"output":51,"interpolation":"LINEAR"},{"input":52,"output":53,"interpolation":"LINEAR"},{"input":54,"output":55,"interpolation":"LINEAR"},{"input":56,"output":57,"interpolation":"LINEAR"},{"input":58,"output":59,"interpolation":"LINEAR"},{"input":60,"output":61,"interpolation":"LINEAR"},{"input":62,"output":63,"interpolation":"LINEAR"},{"input":64,"output":65,"interpolation":"LINEAR"},{"input":66,"output":67,"interpolation":"LINEAR"},{"input":68,"output":69,"interpolation":"LINEAR"},{"input":70,"output":71,"interpolation":"LINEAR"}],"channels":[{"sampler":0,"target":{"node":24,"path":"rotation"}},{"sampler":1,"target":{"node":6,"path":"rotation"}},{"sampler":2,"target":{"node":10,"path":"rotation"}},{"sampler":3,"target":{"node":10,"path":"translation"}},{"sampler":4,"target":{"node":14,"path":"rotation"}},{"sampler":5,"target":{"node":14,"path":"translation"}},{"sampler":6,"target":{"node":18,"path":"rotation"}},{"sampler":7,"target":{"node":22,"path":"rotation"}},{"sampler":8,"target":{"node":9,"path":"rotation"}},{"sampler":9,"target":{"node":13,"path":"rotation"}},{"sampler":10,"target":{"node":17,"path":"rotation"}},{"sampler":11,"target":{"node":21,"path":"rotation"}}]}]}