{"asset":{"version":"2.0","generator":"Blockbench 4.9.4 glTF exporter"},"scenes":[{"nodes":[24],"name":"blockbench_export"}],"scene":0,"nodes":[{"name":"skirt","mesh":0},{"name":"torso","mesh":1},{"name":"neck","mesh":2},{"name":"head","mesh":3},{"rotation":[0,0,-0.23768589232617307,0.9713420698132614],"translation":[0,1.125,0],"name":"cube","mesh":4},{"rotation":[-0.06501439515079717,0.007120234284824852,-0.10863378251613316,0.9919279872970329],"translation":[0,1.125,0],"name":"cube","mesh":5},{"rotation":[0.06819939779410732,0.0391784252768011,0.12621268194500093,0.9888803021850529],"translation":[0,1.125,0],"name":"cube","mesh":6},{"rotation":[-0.060956231118213224,0.023704581855788564,0.15179767834288177,0.9862453526058392],"translation":[0,1.125,0],"name":"cube","mesh":7},{"rotation":[0.18777784084921445,0.12760689708627054,-0.15718879832314697,0.9611179136733152],"translation":[0,1.125,0],"name":"cube","mesh":8},{"rotation":[-0.2566048122925706,0.03378266443126189,-0.33036608954935176,0.9076733711903687],"translation":[0,1.125,0],"name":"cube","mesh":9},{"rotation":[0.15206615739461687,0.1685820911995535,-0.3811282616567766,0.8962127038089254],"translation":[0,1.125,0],"name":"cube","mesh":10},{"name":"antler","children":[4,5,6,7,8,9,10]},{"rotation":[0,0,-0.23768589232617307,0.9713420698132614],"translation":[0,1.125,0],"name":"cube","mesh":11},{"rotation":[-0.06501439515079717,0.007120234284824852,-0.10863378251613316,0.9919279872970329],"translation":[0,1.125,0],"name":"cube","mesh":12},{"rotation":[-0.060956231118213224,0.023704581855788564,0.15179767834288177,0.9862453526058392],"translation":[0,1.125,0],"name":"cube","mesh":13},{"rotation":[0.18777784084921445,0.12760689708627054,-0.15718879832314697,0.9611179136733152],"translation":[0,1.125,0],"name":"cube","mesh":14},{"rotation":[0.05029829179970201,0.03112496515308593,0.2340749095444405,0.9704175673945795],"translation":[0,1.125,0],"name":"cube","mesh":15},{"rotation":[0.15206615739461687,0.1685820911995535,-0.3811282616567766,0.8962127038089254],"translation":[0,1.125,0],"name":"cube","mesh":16},{"rotation":[-0.26360747266762496,-0.09091557521341921,-0.5197140162052817,0.8075535894893765],"translation":[0,1.125,0],"name":"cube","mesh":17},{"rotation":[0,-0.9990482215818578,0,0.04361938736533601],"name":"antler2","children":[12,13,14,15,16,17,18]},{"name":"head","children":[3,11,19]},{"name":"neck","children":[2,20]},{"name":"body","children":[1,21]},{"translation":[0,-0.0625,0],"name":"spirit","children":[0,22]},{"children":[23]}],"bufferViews":[{"buffer":0,"byteOffset":0,"byteLength":864,"target":34962,"byteStride":12},{"buffer":0,"byteOffset":864,"byteLength":864,"target":34962,"byteStride":12},{"buffer":0,"byteOffset":1728,"byteLength":576,"target":34962,"byteStride":8},{"buffer":0,"byteOffset":2304,"byteLength":144,"target":34963},{"buffer":0,"byteOffset":2448,"byteLength":3168,"target":34962,"byteStride":12},{"buffer":0,"byteOffset":5616,"byteLength":3168,"target":34962,"byteStride":12},{"buffer":0,"byteOffset":8784,"byteLength":2112,"target":34962,"byteStride":8},{"buffer":0,"byteOffset":10896,"byteLength":720,"target":34963},{"buffer":0,"byteOffset":11616,"byteLength":3168,"target":34962,"byteStride":12},{"buffer":0,"byteOffset":14784,"byteLength":3168,"target":34962,"byteStride":12},{"buffer":0,"byteOffset":17952,"byteLength":2112,"target":34962,"byteStride":8},{"buffer":0,"byteOffset":20064,"byteLength":720,"target":34963},{"buffer":0,"byteOffset":20784,"byteLength":3168,"target":34962,"byteStride":12},{"buffer":0,"byteOffset":23952,"byteLength":3168,"target":34962,"byteStride":12},{"buffer":0,"byteOffset":27120,"byteLength":2112,"target":34962,"byteStride":8},{"buffer":0,"byteOffset":29232,"byteLength":720,"target":34963},{"buffer":0,"byteOffset":29952,"byteLength":288,"target":34962,"byteStride":12},{"buffer":0,"byteOffset":30240,"byteLength":288,"target":34962,"byteStride":12},{"buffer":0,"byteOffset":30528,"byteLength":192,"target":34962,"byteStride":8},{"buffer":0,"byteOffset":30720,"byteLength":72,"target":34963},{"buffer":0,"byteOffset":30792,"byteLength":288,"target":34962,"byteStride":12},{"buffer":0,"byteOffset":31080,"byteLength":288,"target":34962,"byteStride":12},{"buffer":0,"byteOffset":31368,"byteLength":192,"target":34962,"byteStride":8},{"buffer":0,"byteOffset":31560,"byteLength":72,"target":34963},{"buffer":0,"byteOffset":31632,"byteLength":288,"target":34962,"byteStride":12},{"buffer":0,"byteOffset":31920,"byteLength":288,"target":34962,"byteStride":12},{"buffer":0,"byteOffset":32208,"byteLength":192,"target":34962,"byteStride":8},{"buffer":0,"byteOffset":32400,"byteLength":72,"target":34963},{"buffer":0,"byteOffset":32472,"byteLength":288,"target":34962,"byteStride":12},{"buffer":0,"byteOffset":32760,"byteLength":288,"target":34962,"byteStride":12},{"buffer":0,"byteOffset":33048,"byteLength":192,"target":34962,"byteStride":8},{"buffer":0,"byteOffset":33240,"byteLength":72,"target":34963},{"buffer":0,"byteOffset":33312,"byteLength":288,"target":34962,"byteStride":12},{"buffer":0,"byteOffset":33600,"byteLength":288,"target":34962,"byteStride":12},{"buffer":0,"byteOffset":33888,"byteLength":192,"target":34962,"byteStride":8},{"buffer":0,"byteOffset":34080,"byteLength":72,"target":34963},{"buffer":0,"byteOffset":34152,"byteLength":288,"target":34962,"byteStride":12},{"buffer":0,"byteOffset":34440,"byteLength":288,"target":34962,"byteStride":12},{"buffer":0,"byteOffset":34728,"byteLength":192,"target":34962,"byteStride":8},{"buffer":0,"byteOffset":34920,"byteLength":72,"target":34963},{"buffer":0,"byteOffset":34992,"byteLength":288,"target":34962,"byteStride":12},{"buffer":0,"byteOffset":35280,"byteLength":288,"target":34962,"byteStride":12},{"buffer":0,"byteOffset":35568,"byteLength":192,"target":34962,"byteStride":8},{"buffer":0,"byteOffset":35760,"byteLength":72,"target":34963},{"buffer":0,"byteOffset":35832,"byteLength":288,"target":34962,"byteStride":12},{"buffer":0,"byteOffset":36120,"byteLength":288,"target":34962,"byteStride":12},{"buffer":0,"byteOffset":36408,"byteLength":192,"target":34962,"byteStride":8},{"buffer":0,"byteOffset":36600,"byteLength":72,"target":34963},{"buffer":0,"byteOffset":36672,"byteLength":288,"target":34962,"byteStride":12},{"buffer":0,"byteOffset":36960,"byteLength":288,"target":34962,"byteStride":12},{"buffer":0,"byteOffset":37248,"byteLength":192,"target":34962,"byteStride":8},{"buffer":0,"byteOffset":37440,"byteLength":72,"target":34963},{"buffer":0,"byteOffset":37512,"byteLength":288,"target":34962,"byteStride":12},{"buffer":0,"byteOffset":37800,"byteLength":288,"target":34962,"byteStride":12},{"buffer":0,"byteOffset":38088,"byteLength":192,"target":34962,"byteStride":8},{"buffer":0,"byteOffset":38280,"byteLength":72,"target":34963},{"buffer":0,"byteOffset":38352,"byteLength":288,"target":34962,"byteStride":12},{"buffer":0,"byteOffset":38640,"byteLength":288,"target":34962,"byteStride":12},{"buffer":0,"byteOffset":38928,"byteLength":192,"target":34962,"byteStride":8},{"buffer":0,"byteOffset":39120,"byteLength":72,"target":34963},{"buffer":0,"byteOffset":39192,"byteLength":288,"target":34962,"byteStride":12},{"buffer":0,"byteOffset":39480,"byteLength":288,"target":34962,"byteStride":12},{"buffer":0,"byteOffset":39768,"byteLength":192,"target":34962,"byteStride":8},{"buffer":0,"byteOffset":39960,"byteLength":72,"target":34963},{"buffer":0,"byteOffset":40032,"byteLength":288,"target":34962,"byteStride":12},{"buffer":0,"byteOffset":40320,"byteLength":288,"target":34962,"byteStride":12},{"buffer":0,"byteOffset":40608,"byteLength":192,"target":34962,"byteStride":8},{"buffer":0,"byteOffset":40800,"byteLength":72,"target":34963},{"buffer":0,"byteOffset":40872,"byteLength":288,"target":34962,"byteStride":12},{"buffer":0,"byteOffset":41160,"byteLength":288,"target":34962,"byteStride":12},{"buffer":0,"byteOffset":41448,"byteLength":192,"target":34962,"byteStride":8},{"buffer":0,"byteOffset":41640,"byteLength":72,"target":34963}],"buffers":[{"byteLength":41712,"uri":"data:application/octet-stream;base64,"}],"accessors":[{"bufferView":0,"componentType":5126,"count":72,"max":[0.375,0.625,0.375],"min":[-0.375,0.125,-0.375],"type":"VEC3"},{"bufferView":1,"componentType":5126,"count":72,"max":[0.800000011920929,0.6000000238418579,0.800000011920929],"min":[-0.800000011920929,-1,-0.800000011920929],"type":"VEC3"},{"bufferView":2,"componentType":5126,"count":72,"max":[0.8644084930419922,0.8125],"min":[0,0],"type":"VEC2"},{"bufferView":3,"componentType":5123,"count":72,"max":[71],"min":[0],"type":"SCALAR"},{"bufferView":4,"componentType":5126,"count":264,"max":[0.25,0.6875,0.25],"min":[-0.25,-0.0625,-0.25],"type":"VEC3"},{"bufferView":5,"componentType":5126,"count":264,"max":[0.9844171404838562,0.927859902381897,0.9844171404838562],"min":[-0.9844171404838562,-0.927859902381897,-0.9844171404838562],"type":"VEC3"},{"bufferView":6,"componentType":5126,"count":264,"max":[0.13397499918937683,0.1294124722480774],"min":[0,0],"type":"VEC2"},{"bufferView":7,"componentType":5123,"count":360,"max":[263],"min":[0],"type":"SCALAR"},{"bufferView":8,"componentType":5126,"count":264,"max":[0.1875,0.9375,0.1875],"min":[-0.1875,0.1875,-0.1875],"type":"VEC3"},{"bufferView":9,"componentType":5126,"count":264,"max":[0.9911444187164307,0.8814124464988708,0.9911444187164307],"min":[-0.9911444187164307,-0.8814124464988708,-0.9911444187164307],"type":"VEC3"},{"bufferView":10,"componentType":5126,"count":264,"max":[0.13397499918937683,0.1294124722480774],"min":[0,0],"type":"VEC2"},{"bufferView":11,"componentType":5123,"count":360,"max":[263],"min":[0],"type":"SCALAR"},{"bufferView":12,"componentType":5126,"count":264,"max":[0.125,1.125,0.125],"min":[-0.125,0.75,-0.125],"type":"VEC3"},{"bufferView":13,"componentType":5126,"count":264,"max":[0.9844171404838562,0.927859902381897,0.9844171404838562],"min":[-0.9844171404838562,-0.927859902381897,-0.9844171404838562],"type":"VEC3"},{"bufferView":14,"componentType":5126,"count":264,"max":[0.13397499918937683,0.1294124722480774],"min":[0,0],"type":"VEC2"},{"bufferView":15,"componentType":5123,"count":360,"max":[263],"min":[0],"type":"SCALAR"},{"bufferView":16,"componentType":5126,"count":24,"max":[0.08124999701976776,0.125,0.01875000074505806],"min":[0.0625,0,0],"type":"VEC3"},{"bufferView":17,"componentType":5126,"count":24,"max":[1,1,1],"min":[-1,-1,-1],"type":"VEC3"},{"bufferView":18,"componentType":5126,"count":24,"max":[0.00937500037252903,0.0625],"min":[0,0],"type":"VEC2"},{"bufferView":19,"componentType":5123,"count":36,"max":[23],"min":[0],"type":"SCALAR"},{"bufferView":20,"componentType":5126,"count":24,"max":[0.11249999701976776,0.21875,0.03125],"min":[0.09375,0.09375,0.012500000186264515],"type":"VEC3"},{"bufferView":21,"componentType":5126,"count":24,"max":[1,1,1],"min":[-1,-1,-1],"type":"VEC3"},{"bufferView":22,"componentType":5126,"count":24,"max":[0.00937500037252903,0.0625],"min":[0,0],"type":"VEC2"},{"bufferView":23,"componentType":5123,"count":36,"max":[23],"min":[0],"type":"SCALAR"},{"bufferView":24,"componentType":5126,"count":24,"max":[0.13750000298023224,0.13124999403953552,0.01875000074505806],"min":[0.11874999850988388,0.03750000149011612,0],"type":"VEC3"},{"bufferView":25,"componentType":5126,"count":24,"max":[1,1,1],"min":[-1,-1,-1],"type":"VEC3"},{"bufferView":26,"componentType":5126,"count":24,"max":[0.00937500037252903,0.046875],"min":[0,0],"type":"VEC2"},{"bufferView":27,"componentType":5123,"count":36,"max":[23],"min":[0],"type":"SCALAR"},{"bufferView":28,"componentType":5126,"count":24,"max":[0.20624999701976776,0.32499998807907104,0.03125],"min":[0.1875,0.13750000298023224,0.012500000186264515],"type":"VEC3"},{"bufferView":29,"componentType":5126,"count":24,"max":[1,1,1],"min":[-1,-1,-1],"type":"VEC3"},{"bufferView":30,"componentType":5126,"count":24,"max":[0.00937500037252903,0.09375],"min":[0,0],"type":"VEC2"},{"bufferView":31,"componentType":5123,"count":36,"max":[23],"min":[0],"type":"SCALAR"},{"bufferView":32,"componentType":5126,"count":24,"max":[0.10000000149011612,0.3125,-0.03750000149011612],"min":[0.08124999701976776,0.20624999701976776,-0.05624999850988388],"type":"VEC3"},{"bufferView":33,"componentType":5126,"count":24,"max":[1,1,1],"min":[-1,-1,-1],"type":"VEC3"},{"bufferView":34,"componentType":5126,"count":24,"max":[0.00937500037252903,0.05312502384185791],"min":[0,0],"type":"VEC2"},{"bufferView":35,"componentType":5123,"count":36,"max":[23],"min":[0],"type":"SCALAR"},{"bufferView":36,"componentType":5126,"count":24,"max":[0.06875000149011612,0.20000000298023224,0.0625],"min":[0.05000000074505806,0.07500000298023224,0.04374999925494194],"type":"VEC3"},{"bufferView":37,"componentType":5126,"count":24,"max":[1,1,1],"min":[-1,-1,-1],"type":"VEC3"},{"bufferView":38,"componentType":5126,"count":24,"max":[0.00937500037252903,0.0625],"min":[0,0],"type":"VEC2"},{"bufferView":39,"componentType":5123,"count":36,"max":[23],"min":[0],"type":"SCALAR"},{"bufferView":40,"componentType":5126,"count":24,"max":[-0.05000000074505806,0.41874998807907104,-0.03750000149011612],"min":[-0.06875000149011612,0.3125,-0.05624999850988388],"type":"VEC3"},{"bufferView":41,"componentType":5126,"count":24,"max":[1,1,1],"min":[-1,-1,-1],"type":"VEC3"},{"bufferView":42,"componentType":5126,"count":24,"max":[0.00937500037252903,0.05312502384185791],"min":[0,0],"type":"VEC2"},{"bufferView":43,"componentType":5123,"count":36,"max":[23],"min":[0],"type":"SCALAR"},{"bufferView":44,"componentType":5126,"count":24,"max":[0.08124999701976776,0.125,0.01875000074505806],"min":[0.0625,0,0],"type":"VEC3"},{"bufferView":45,"componentType":5126,"count":24,"max":[1,1,1],"min":[-1,-1,-1],"type":"VEC3"},{"bufferView":46,"componentType":5126,"count":24,"max":[0.00937500037252903,0.0625],"min":[0,0],"type":"VEC2"},{"bufferView":47,"componentType":5123,"count":36,"max":[23],"min":[0],"type":"SCALAR"},{"bufferView":48,"componentType":5126,"count":24,"max":[0.11249999701976776,0.21875,0.03125],"min":[0.09375,0.09375,0.012500000186264515],"type":"VEC3"},{"bufferView":49,"componentType":5126,"count":24,"max":[1,1,1],"min":[-1,-1,-1],"type":"VEC3"},{"bufferView":50,"componentType":5126,"count":24,"max":[0.00937500037252903,0.0625],"min":[0,0],"type":"VEC2"},{"bufferView":51,"componentType":5123,"count":36,"max":[23],"min":[0],"type":"SCALAR"},{"bufferView":52,"componentType":5126,"count":24,"max":[0.20624999701976776,0.26249998807907104,0.03125],"min":[0.1875,0.13750000298023224,0.012500000186264515],"type":"VEC3"},{"bufferView":53,"componentType":5126,"count":24,"max":[1,1,1],"min":[-1,-1,-1],"type":"VEC3"},{"bufferView":54,"componentType":5126,"count":24,"max":[0.00937500037252903,0.0625],"min":[0,0],"type":"VEC2"},{"bufferView":55,"componentType":5123,"count":36,"max":[23],"min":[0],"type":"SCALAR"},{"bufferView":56,"componentType":5126,"count":24,"max":[0.10000000149011612,0.375,-0.03750000149011612],"min":[0.08124999701976776,0.20624999701976776,-0.05624999850988388],"type":"VEC3"},{"bufferView":57,"componentType":5126,"count":24,"max":[1,1,1],"min":[-1,-1,-1],"type":"VEC3"},{"bufferView":58,"componentType":5126,"count":24,"max":[0.00937500037252903,0.08437502384185791],"min":[0,0],"type":"VEC2"},{"bufferView":59,"componentType":5123,"count":36,"max":[23],"min":[0],"type":"SCALAR"},{"bufferView":60,"componentType":5126,"count":24,"max":[0.13750000298023224,0.16249999403953552,0.01875000074505806],"min":[0.11874999850988388,0.0062500000931322575,0],"type":"VEC3"},{"bufferView":61,"componentType":5126,"count":24,"max":[1,1,1],"min":[-1,-1,-1],"type":"VEC3"},{"bufferView":62,"componentType":5126,"count":24,"max":[0.00937500037252903,0.078125],"min":[0,0],"type":"VEC2"},{"bufferView":63,"componentType":5123,"count":36,"max":[23],"min":[0],"type":"SCALAR"},{"bufferView":64,"componentType":5126,"count":24,"max":[-0.08124999701976776,0.46875,-0.03750000149011612],"min":[-0.10000000149011612,0.36250001192092896,-0.05624999850988388],"type":"VEC3"},{"bufferView":65,"componentType":5126,"count":24,"max":[1,1,1],"min":[-1,-1,-1],"type":"VEC3"},{"bufferView":66,"componentType":5126,"count":24,"max":[0.00937500037252903,0.05312502384185791],"min":[0,0],"type":"VEC2"},{"bufferView":67,"componentType":5123,"count":36,"max":[23],"min":[0],"type":"SCALAR"},{"bufferView":68,"componentType":5126,"count":24,"max":[0.01875000074505806,0.24375000596046448,0.0625],"min":[0,0.11874999850988388,0.04374999925494194],"type":"VEC3"},{"bufferView":69,"componentType":5126,"count":24,"max":[1,1,1],"min":[-1,-1,-1],"type":"VEC3"},{"bufferView":70,"componentType":5126,"count":24,"max":[0.00937500037252903,0.0625],"min":[0,0],"type":"VEC2"},{"bufferView":71,"componentType":5123,"count":36,"max":[23],"min":[0],"type":"SCALAR"}],"materials":[{"pbrMetallicRoughness":{"metallicFactor":0,"roughnessFactor":1,"baseColorTexture":{"index":0}},"alphaMode":"MASK","alphaCutoff":0.05,"doubleSided":true},{"pbrMetallicRoughness":{"metallicFactor":0,"roughnessFactor":1,"baseColorTexture":{"index":1}},"alphaMode":"MASK","alphaCutoff":0.05,"doubleSided":true},{"pbrMetallicRoughness":{"metallicFactor":0,"roughnessFactor":1},"alphaMode":"MASK","alphaCutoff":0.05,"doubleSided":true}],"textures":[{"sampler":0,"source":0},{"sampler":1,"source":1}],"samplers":[{"magFilter":9728,"minFilter":9728,"wrapS":33071,"wrapT":33071},{"magFilter":9728,"minFilter":9728,"wrapS":33071,"wrapT":33071}],"images":[{"mimeType":"image/png","uri":"data:image/png;base64,"},{"mimeType":"image/png","uri":"data:image/png;base64,"}],"meshes":[{"primitives":[{"mode":4,"attributes":{"POSITION":0,"NORMAL":1,"TEXCOORD_0":2},"indices":3,"material":0}]},{"primitives":[{"mode":4,"attributes":{"POSITION":4,"NORMAL":5,"TEXCOORD_0":6},"indices":7,"material":0}]},{"primitives":[{"mode":4,"attributes":{"POSITION":8,"NORMAL":9,"TEXCOORD_0":10},"indices":11,"material":0}]},{"primitives":[{"mode":4,"attributes":{"POSITION":12,"NORMAL":13,"TEXCOORD_0":14},"indices":15,"material":1}]},{"primitives":[{"mode":4,"attributes":{"POSITION":16,"NORMAL":17,"TEXCOORD_0":18},"indices":19,"material":2}]},{"primitives":[{"mode":4,"attributes":{"POSITION":20,"NORMAL":21,"TEXCOORD_0":22},"indices":23,"material":2}]},{"primitives":[{"mode":4,"attributes":{"POSITION":24,"NORMAL":25,"TEXCOORD_0":26},"indices":27,"material":2}]},{"primitives":[{"mode":4,"attributes":{"POSITION":28,"NORMAL":29,"TEXCOORD_0":30},"indices":31,"material":2}]},{"primitives":[{"mode":4,"attributes":{"POSITION":32,"NORMAL":33,"TEXCOORD_0":34},"indices":35,"material":2}]},{"primitives":[{"mode":4,"attributes":{"POSITION":36,"NORMAL":37,"TEXCOORD_0":38},"indices":39,"material":2}]},{"primitives":[{"mode":4,"attributes":{"POSITION":40,"NORMAL":41,"TEXCOORD_0":42},"indices":43,"material":2}]},{"primitives":[{"mode":4,"attributes":{"POSITION":44,"NORMAL":45,"TEXCOORD_0":46},"indices":47,"material":2}]},{"primitives":[{"mode":4,"attributes":{"POSITION":48,"NORMAL":49,"TEXCOORD_0":50},"indices":51,"material":2}]},{"primitives":[{"mode":4,"attributes":{"POSITION":52,"NORMAL":53,"TEXCOORD_0":54},"indices":55,"material":2}]},{"primitives":[{"mode":4,"attributes":{"POSITION":56,"NORMAL":57,"TEXCOORD_0":58},"indices":59,"material":2}]},{"primitives":[{"mode":4,"attributes":{"POSITION":60,"NORMAL":61,"TEXCOORD_0":62},"indices":63,"material":2}]},{"primitives":[{"mode":4,"attributes":{"POSITION":64,"NORMAL":65,"TEXCOORD_0":66},"indices":67,"material":2}]},{"primitives":[{"mode":4,"attributes":{"POSITION":68,"NORMAL":69,"TEXCOORD_0":70},"indices":71,"material":2}]}]}